<svg xmlns="http://www.w3.org/2000/svg" xmlns:xlink="http://www.w3.org/1999/xlink" width="1024" zoomAndPan="magnify" viewBox="0 0 768 374.999991" height="500" preserveAspectRatio="xMidYMid meet" version="1.0"><defs><clipPath id="3350c9e4ed"><path d="M 0 0 L 151.828125 0 L 151.828125 116.394531 L 0 116.394531 Z M 0 0 " clip-rule="nonzero"/></clipPath><clipPath id="0963a0ffa4"><path d="M 12.121094 -163.019531 C -65.039062 -163.019531 -127.585938 -100.46875 -127.585938 -23.3125 C -127.585938 53.84375 -65.039062 116.394531 12.121094 116.394531 C 89.277344 116.394531 151.828125 53.84375 151.828125 -23.3125 C 151.828125 -100.46875 89.277344 -163.019531 12.121094 -163.019531 Z M 12.121094 -163.019531 " clip-rule="nonzero"/></clipPath><clipPath id="311a468646"><path d="M 0 0 L 151.828125 0 L 151.828125 116.394531 L 0 116.394531 Z M 0 0 " clip-rule="nonzero"/></clipPath><clipPath id="bb7ec909ec"><path d="M 12.121094 -163.019531 C -65.039062 -163.019531 -127.585938 -100.46875 -127.585938 -23.3125 C -127.585938 53.84375 -65.039062 116.394531 12.121094 116.394531 C 89.277344 116.394531 151.828125 53.84375 151.828125 -23.3125 C 151.828125 -100.46875 89.277344 -163.019531 12.121094 -163.019531 Z M 12.121094 -163.019531 " clip-rule="nonzero"/></clipPath><clipPath id="06e99ee5d5"><rect x="0" width="152" y="0" height="117"/></clipPath><clipPath id="dcb0b99aba"><path d="M 610.488281 0 L 768 0 L 768 157.882812 L 610.488281 157.882812 Z M 610.488281 0 " clip-rule="nonzero"/></clipPath><clipPath id="db1c079e5f"><path d="M 742.964844 -107.066406 C 669.800781 -107.066406 610.488281 -47.753906 610.488281 25.410156 C 610.488281 98.570312 669.800781 157.882812 742.964844 157.882812 C 816.128906 157.882812 875.4375 98.570312 875.4375 25.410156 C 875.4375 -47.753906 816.128906 -107.066406 742.964844 -107.066406 Z M 742.964844 -107.066406 " clip-rule="nonzero"/></clipPath><clipPath id="8b674bf5ec"><path d="M 0.488281 0 L 158 0 L 158 157.882812 L 0.488281 157.882812 Z M 0.488281 0 " clip-rule="nonzero"/></clipPath><clipPath id="1b4528ceb4"><path d="M 132.964844 -107.066406 C 59.800781 -107.066406 0.488281 -47.753906 0.488281 25.410156 C 0.488281 98.570312 59.800781 157.882812 132.964844 157.882812 C 206.128906 157.882812 265.4375 98.570312 265.4375 25.410156 C 265.4375 -47.753906 206.128906 -107.066406 132.964844 -107.066406 Z M 132.964844 -107.066406 " clip-rule="nonzero"/></clipPath><clipPath id="8e032e8521"><rect x="0" width="158" y="0" height="158"/></clipPath><clipPath id="2aa6c0a7ca"><path d="M 0 269.511719 L 183.605469 269.511719 L 183.605469 375 L 0 375 Z M 0 269.511719 " clip-rule="nonzero"/></clipPath><clipPath id="1778287611"><path d="M 44.316406 269.511719 C -32.613281 269.511719 -94.972656 331.871094 -94.972656 408.800781 C -94.972656 485.726562 -32.613281 548.089844 44.316406 548.089844 C 121.242188 548.089844 183.605469 485.726562 183.605469 408.800781 C 183.605469 331.871094 121.242188 269.511719 44.316406 269.511719 Z M 44.316406 269.511719 " clip-rule="nonzero"/></clipPath><clipPath id="5c935327c9"><path d="M 0 0.511719 L 183.605469 0.511719 L 183.605469 106 L 0 106 Z M 0 0.511719 " clip-rule="nonzero"/></clipPath><clipPath id="1f89253989"><path d="M 44.316406 0.511719 C -32.613281 0.511719 -94.972656 62.871094 -94.972656 139.800781 C -94.972656 216.726562 -32.613281 279.089844 44.316406 279.089844 C 121.242188 279.089844 183.605469 216.726562 183.605469 139.800781 C 183.605469 62.871094 121.242188 0.511719 44.316406 0.511719 Z M 44.316406 0.511719 " clip-rule="nonzero"/></clipPath><clipPath id="8edb6537df"><rect x="0" width="184" y="0" height="106"/></clipPath><clipPath id="0ed7ba4966"><path d="M 436.082031 223.71875 L 768 223.71875 L 768 375 L 436.082031 375 Z M 436.082031 223.71875 " clip-rule="nonzero"/></clipPath><clipPath id="70916f18f1"><path d="M 673.445312 223.71875 C 542.351562 223.71875 436.082031 329.992188 436.082031 461.082031 C 436.082031 592.171875 542.351562 698.445312 673.445312 698.445312 C 804.535156 698.445312 910.804688 592.171875 910.804688 461.082031 C 910.804688 329.992188 804.535156 223.71875 673.445312 223.71875 Z M 673.445312 223.71875 " clip-rule="nonzero"/></clipPath><clipPath id="b88a4dae61"><path d="M 0.0820312 0.71875 L 332 0.71875 L 332 152 L 0.0820312 152 Z M 0.0820312 0.71875 " clip-rule="nonzero"/></clipPath><clipPath id="7c88265ece"><path d="M 237.445312 0.71875 C 106.351562 0.71875 0.0820312 106.992188 0.0820312 238.082031 C 0.0820312 369.171875 106.351562 475.445312 237.445312 475.445312 C 368.535156 475.445312 474.804688 369.171875 474.804688 238.082031 C 474.804688 106.992188 368.535156 0.71875 237.445312 0.71875 Z M 237.445312 0.71875 " clip-rule="nonzero"/></clipPath><clipPath id="369e066b00"><rect x="0" width="332" y="0" height="152"/></clipPath></defs><rect x="-76.8" width="921.6" fill="#ffffff" y="-37.499999" height="449.999989" fill-opacity="1"/><rect x="-76.8" width="921.6" fill="#ffecd9" y="-37.499999" height="449.999989" fill-opacity="1"/><g clip-path="url(#3350c9e4ed)"><g clip-path="url(#0963a0ffa4)"><g transform="matrix(1, 0, 0, 1, 0, 0)"><g clip-path="url(#06e99ee5d5)"><g clip-path="url(#311a468646)"><g clip-path="url(#bb7ec909ec)"><path fill="#f3dbc4" d="M -127.585938 -163.019531 L 151.828125 -163.019531 L 151.828125 116.394531 L -127.585938 116.394531 Z M -127.585938 -163.019531 " fill-opacity="1" fill-rule="nonzero"/></g></g></g></g></g></g><g clip-path="url(#dcb0b99aba)"><g clip-path="url(#db1c079e5f)"><g transform="matrix(1, 0, 0, 1, 610, 0)"><g clip-path="url(#8e032e8521)"><g clip-path="url(#8b674bf5ec)"><g clip-path="url(#1b4528ceb4)"><path fill="#f3dbc4" d="M 0.488281 -107.066406 L 265.4375 -107.066406 L 265.4375 157.882812 L 0.488281 157.882812 Z M 0.488281 -107.066406 " fill-opacity="1" fill-rule="nonzero"/></g></g></g></g></g></g><g clip-path="url(#2aa6c0a7ca)"><g clip-path="url(#1778287611)"><g transform="matrix(1, 0, 0, 1, 0, 269)"><g clip-path="url(#8edb6537df)"><g clip-path="url(#5c935327c9)"><g clip-path="url(#1f89253989)"><path fill="#f3dbc4" d="M -94.972656 0.511719 L 183.605469 0.511719 L 183.605469 279.089844 L -94.972656 279.089844 Z M -94.972656 0.511719 " fill-opacity="1" fill-rule="nonzero"/></g></g></g></g></g></g><g clip-path="url(#0ed7ba4966)"><g clip-path="url(#70916f18f1)"><g transform="matrix(1, 0, 0, 1, 436, 223)"><g clip-path="url(#369e066b00)"><g clip-path="url(#b88a4dae61)"><g clip-path="url(#7c88265ece)"><path fill="#f3dbc4" d="M 0.0820312 0.71875 L 474.804688 0.71875 L 474.804688 475.445312 L 0.0820312 475.445312 Z M 0.0820312 0.71875 " fill-opacity="1" fill-rule="nonzero"/></g></g></g></g></g></g></svg>